<svg xmlns="http://www.w3.org/2000/svg" viewBox="0 0 64 64">
  <circle cx="32" cy="32" r="32" fill="#eef4ea"/>
  <g transform="rotate(-18 32 32)">
    <path d="M32 7
             C41 9 46 13 45 19
             C40 21 45 25 44 31
             C38 32 42 37 39 44
             C34 43 36 49 32 55
             C28 49 30 43 25 44
             C22 37 26 32 20 31
             C19 25 24 21 19 19
             C18 13 23 9 32 7 Z"
          fill="#7c9a72"/>
    <path d="M32 13 L32 48 M32 22 L26 19 M32 22 L38 19 M32 32 L25 29 M32 32 L39 29 M32 41 L27 38 M32 41 L37 38"
          stroke="#f7faf5" stroke-width="2" stroke-linecap="round" fill="none"/>
  </g>
  <g fill="#d9a5b3">
    <circle cx="44" cy="46" r="6"/>
    <circle cx="52" cy="40" r="5"/>
    <circle cx="51" cy="50" r="4.5"/>
  </g>
  <circle cx="42" cy="44" r="1.8" fill="#fff" opacity="0.8"/>
</svg>
